<?xml version="1.0" encoding="utf-8"?>
<!-- Generator: Adobe Illustrator 27.9.0, SVG Export Plug-In . SVG Version: 6.00 Build 0)  -->
<svg version="1.1" id="Слой_1" xmlns="http://www.w3.org/2000/svg" xmlns:xlink="http://www.w3.org/1999/xlink" x="0px" y="0px"
	 width="500px" height="461.3px" viewBox="0 0 500 461.3" style="enable-background:new 0 0 500 461.3;" xml:space="preserve">
<style type="text/css">
	.st0{fill:#E51F2B;}
	.st1{fill:#121037;}
	.st2{fill:#FFFFFF;}
</style>
<g>
	<path class="st0" d="M95.1,260.2l-16.6-4.1c-5.9-1.6-8.8-4.3-8.8-8.2c0-2.7,1.3-4.9,3.8-6.5c2.5-1.6,5.7-2.4,9.5-2.4
		c5.8,0,11.8,2.4,18.1,7.2c2.6,2,5,2,7.1-0.1l6.1-6.3c2.2-2.1,1.9-4.4-0.7-6.8c-3-2.9-7.1-5.3-12.4-7.3c-5.3-2-11.2-3-17.7-3
		c-9.8,0-17.8,2.5-24.1,7.5c-6.3,5-9.5,11.4-9.5,19.2c0,6.1,1.9,11.2,5.6,15.4c3.8,4.1,9,7,15.8,8.7l15,3.7c4.2,1.1,7.4,2.4,9.4,3.9
		c2,1.5,3,3.6,3,6.3c0,2.5-1.2,4.6-3.7,6.5c-2.5,1.8-6,2.7-10.4,2.7c-7.8,0-14.7-3-20.9-8.9c-2.2-2.2-4.2-2.5-6.3-1l-7.9,6.2
		c-1.3,1.2-1.8,2.4-1.7,3.8c0.1,1.4,0.8,2.6,1.9,3.8c3.3,3.6,7.9,6.6,13.7,9c5.8,2.4,12.6,3.7,20.4,3.7c11.2,0,19.8-2.7,26-8.2
		c6.2-5.5,9.3-11.9,9.3-19.4C119,272.7,111,264.3,95.1,260.2"/>
	<path class="st0" d="M187.8,232.7c-5.4-5.6-12.9-8.4-22.4-8.4h-34c-0.8,0-1.5,0.3-2,0.8c-0.5,0.5-0.7,1.2-0.7,1.9v81.3
		c0,0.8,0.2,1.5,0.7,2.1c0.5,0.5,1.2,0.8,2,0.8h13.2c0.7,0,1.4-0.3,1.9-0.8c0.5-0.5,0.8-1.2,0.8-2.1v-26.1h18.1
		c9.4,0,16.9-2.8,22.3-8.3c5.4-5.5,8.2-12.4,8.3-20.7C195.9,245.1,193.2,238.3,187.8,232.7 M172.8,262.4c-2.5,2.3-5.7,3.5-9.6,3.6
		h-16v-25.3h16c3.9,0,7.1,1.1,9.6,3.4c2.5,2.3,3.7,5.3,3.7,9.1C176.6,257,175.3,260.1,172.8,262.4"/>
	<path class="st0" d="M279.4,235.6c-8.9-8.7-19.8-13-32.7-13c-12.9,0-23.8,4.4-32.7,13.1c-8.9,8.7-13.4,19.4-13.4,32.1
		c0,12.7,4.5,23.4,13.4,32.1c8.9,8.7,19.8,13.1,32.7,13.1c12.9,0,23.8-4.3,32.7-13c8.9-8.7,13.4-19.4,13.4-32.2
		C292.8,255,288.3,244.3,279.4,235.6 M265.8,287.6c-5.1,5.4-11.4,8.1-19.1,8.1c-7.7,0-14.1-2.7-19.1-8.1c-5.1-5.4-7.6-12-7.6-19.9
		c0-7.9,2.5-14.5,7.6-19.9c5.1-5.4,11.4-8.1,19.1-8.1c7.7,0,14.1,2.7,19.1,8.1c5.1,5.4,7.6,12,7.6,19.9
		C273.4,275.6,270.9,282.2,265.8,287.6"/>
	<path class="st0" d="M376.4,307.5l-19.9-31.8c4.2-1.4,7.7-3.7,10.5-6.7c2.8-3.1,4.6-6.1,5.6-9.1c1-3,1.4-6,1.4-9.1
		c0-7.6-2.7-13.9-8.3-19c-5.5-5.1-12.8-7.6-21.9-7.6h-39c-0.8,0-1.5,0.3-2,0.9c-0.5,0.6-0.7,1.2-0.7,1.9v81.3c0,0.8,0.3,1.5,0.7,2
		c0.5,0.5,1.2,0.8,2,0.8h13c0.8,0,1.5-0.3,2.1-0.8c0.5-0.5,0.8-1.2,0.8-2v-29.6h16.6l17.9,29.6c1.2,1.9,2.7,2.9,4.7,2.9h14.4
		c1.1,0,1.8-0.4,2.2-1.2C377,309.1,376.9,308.3,376.4,307.5 M350.8,260.5c-2.4,2.2-5.6,3.3-9.4,3.3h-20.7v-23.1h21
		c3.7,0,6.8,1,9.2,3c2.4,2,3.6,4.8,3.6,8.3C354.5,255.5,353.3,258.3,350.8,260.5"/>
	<path class="st0" d="M451.6,225.1c-0.5-0.6-1.2-0.8-1.9-0.8h-68.8c-0.7,0-1.4,0.3-1.9,0.8c-0.5,0.5-0.8,1.2-0.8,2v11.4
		c0,0.8,0.3,1.5,0.8,2c0.6,0.5,1.2,0.8,1.9,0.8h24.8v66.9c0,0.8,0.3,1.5,0.8,2c0.5,0.5,1.2,0.8,2,0.8H422c0.8,0,1.5-0.3,2-0.8
		c0.5-0.5,0.8-1.2,0.8-2v-66.9h24.8c0.7,0,1.4-0.3,1.9-0.8c0.5-0.5,0.8-1.2,0.8-2v-11.4C452.4,226.3,452.1,225.6,451.6,225.1"/>
	<path class="st1" d="M175.5,99l-26.2-11c-7.7-3.3-10.6-5.5-10.1-8.2c0.4-2.5,2.4-4.8,9.7-4.8l54,0c1.4,0,2.5-1,2.8-2.3l4.2-19.8
		c0.4-1.8-1-3.5-2.8-3.5l-55.8,0c-26.5,0.2-37.2,14.3-40.5,29.2c-4.2,18.9,10.9,27.6,21.7,32.1l28.8,11.7c7,2.8,8.2,5.4,7.4,8.3
		c-0.8,3.2-3.3,5.2-12.3,5.2h-55.5c-1.4,0-2.5,1-2.8,2.3l-4.2,19.8c-0.4,1.8,1,3.5,2.8,3.5h59.7v0c27.4-0.2,36.9-14.4,40.3-29.9
		C201,112.1,188.8,104.6,175.5,99"/>
	<path class="st1" d="M427,49.4h-25.5c-0.8,0-1.6,0.4-2.2,1l-41.2,46.5l-27.6-46.1c-0.5-0.9-1.5-1.4-2.5-1.4h-10h-14.9h-10.6
		c-0.8,0-1.6,0.4-2.2,1l-48,54.3l33.3,55.6c0.5,0.9,1.5,1.4,2.5,1.4h26.5c2.2,0,3.6-2.5,2.5-4.4l-31.5-52.6l33.1-37.4l32.8,54.9
		l-15.4,72.5c-0.4,1.8,1,3.5,2.8,3.5h0.2h21.5c1.4,0,2.6-1,2.8-2.3l15.7-73.7l60.1-67.9C430.9,52.3,429.5,49.4,427,49.4"/>
	<path class="st1" d="M261,0h-22.5c-1.4,0-2.6,1-2.8,2.3l-33.1,155.8c-0.4,1.8,1,3.5,2.8,3.5h22.5c1.4,0,2.6-1,2.9-2.3L263.9,3.5
		C264.3,1.7,262.9,0,261,0"/>
	<path class="st0" d="M493.3,461.3H6.7c-3.7,0-6.7-3-6.7-6.7V343.3c0-3.7,3-6.7,6.7-6.7h486.5c3.7,0,6.7,3,6.7,6.7v111.3
		C500,458.3,497,461.3,493.3,461.3"/>
	<path class="st2" d="M49.8,353.8c6.5,0,12.4,1,17.7,3c5.3,2,9.4,4.4,12.4,7.3c2.6,2.4,2.9,4.7,0.7,6.8l-6.1,6.3
		c-2.1,2.1-4.4,2.1-7.1,0.1c-6.3-4.8-12.3-7.2-18.1-7.2c-3.8,0-7,0.8-9.5,2.4c-2.5,1.6-3.8,3.8-3.8,6.5c0,3.9,2.9,6.6,8.8,8.2
		l16.6,4.1c15.9,4.1,23.8,12.5,23.8,25.2c0,7.4-3.1,13.9-9.2,19.3c-6.2,5.4-14.8,8.2-26,8.2c-7.8,0-14.6-1.2-20.4-3.7
		c-5.8-2.4-10.4-5.4-13.7-9c-1.2-1.2-1.8-2.4-1.9-3.8c-0.1-1.4,0.4-2.6,1.7-3.8l7.9-6.2c2.1-1.5,4.2-1.2,6.3,1
		c6.1,6,13.1,8.9,20.8,8.9c4.5,0,7.9-0.9,10.4-2.7c2.5-1.8,3.7-4,3.7-6.4c0-2.6-1-4.7-3-6.3c-2-1.5-5.1-2.8-9.4-3.9l-15-3.7
		c-6.8-1.6-12-4.5-15.8-8.7c-3.8-4.1-5.6-9.3-5.6-15.4c0-7.8,3.2-14.1,9.5-19.1C32.1,356.3,40.1,353.8,49.8,353.8 M95,355.6H157
		c0.8,0,1.5,0.3,2,0.8c0.5,0.5,0.8,1.2,0.8,2v11.4c0,0.8-0.3,1.5-0.8,2c-0.5,0.5-1.2,0.8-2,0.8h-46.2v17.8H151c0.8,0,1.5,0.3,2,0.8
		c0.5,0.5,0.7,1.2,0.7,2v10.9c0,0.7-0.3,1.4-0.8,2c-0.5,0.6-1.2,0.9-1.9,0.9h-40.2v18.1H158c0.7,0,1.4,0.3,2,0.8
		c0.6,0.5,0.9,1.2,0.9,2v11.4c0,0.8-0.3,1.5-0.9,2c-0.6,0.5-1.3,0.8-2,0.8H95c-0.8,0-1.5-0.3-2-0.8c-0.5-0.5-0.7-1.2-0.7-2v-81.2
		c0-0.7,0.3-1.4,0.7-1.9C93.5,355.9,94.1,355.6,95,355.6 M235.6,428.1v11.4c0,0.8-0.3,1.5-0.8,2c-0.5,0.5-1.2,0.8-2,0.8h-56.4
		c-0.8,0-1.5-0.3-2-0.8c-0.5-0.5-0.7-1.2-0.7-1.9v-81.2c0-0.8,0.3-1.5,0.7-2c0.5-0.5,1.1-0.8,2-0.8h13c0.7,0,1.4,0.3,2,0.8
		c0.6,0.5,0.9,1.2,0.9,2v66.8h40.5c0.8,0,1.5,0.3,2,0.8C235.3,426.6,235.6,427.2,235.6,428.1 M246.7,355.6h62.1c0.8,0,1.5,0.3,2,0.8
		c0.6,0.5,0.8,1.2,0.8,2v11.4c0,0.8-0.3,1.5-0.8,2c-0.5,0.5-1.2,0.8-2,0.8h-46.2v17.8h40.2c0.8,0,1.5,0.3,2,0.8
		c0.5,0.5,0.7,1.2,0.7,2v10.9c0,0.7-0.3,1.4-0.8,2c-0.5,0.6-1.2,0.9-1.9,0.9h-40.2v18.1h47.2c0.7,0,1.4,0.3,2,0.8
		c0.6,0.5,0.9,1.2,0.9,2v11.4c0,0.8-0.3,1.5-0.9,2c-0.6,0.5-1.2,0.8-2,0.8h-63.1c-0.8,0-1.5-0.3-2-0.8c-0.5-0.5-0.7-1.2-0.7-2v-81.2
		c0-0.7,0.3-1.4,0.7-1.9C245.2,355.9,245.9,355.6,246.7,355.6 M363.3,444.1c-12.9,0-23.8-4.3-32.7-13c-8.9-8.7-13.3-19.4-13.3-32.1
		c0-12.7,4.4-23.4,13.3-32.1c8.9-8.7,19.8-13,32.7-13c9.7,0,18.3,2.4,25.8,7.1c7.6,4.7,12.8,11.3,15.7,19.6c0.6,1.6,0.1,2.5-1.4,2.9
		l-14.1,3.7c-1.2,0.3-2.2-0.2-2.8-1.7c-5-9.6-12.6-14.4-23-14.4c-7.8,0-14.2,2.7-19.2,8c-5,5.4-7.6,12-7.6,19.8
		c0,7.9,2.5,14.5,7.6,19.8c5,5.4,11.4,8,19.2,8c10.4,0,18.1-4.8,23-14.4c0.6-1.5,1.6-2.1,2.8-1.7l14.1,3.7c1.5,0.3,1.9,1.3,1.4,2.9
		c-2.9,8.3-8.1,14.9-15.7,19.6C381.5,441.7,372.9,444.1,363.3,444.1 M407.2,369.8v-11.4c0-0.8,0.3-1.5,0.8-2
		c0.5-0.5,1.2-0.8,1.9-0.8h68.6c0.7,0,1.4,0.3,1.9,0.8c0.5,0.5,0.8,1.2,0.8,2v11.4c0,0.8-0.3,1.5-0.8,2c-0.5,0.5-1.2,0.8-1.9,0.8
		h-24.8v66.8c0,0.8-0.3,1.5-0.8,2c-0.5,0.5-1.2,0.8-2,0.8h-13.5c-0.8,0-1.5-0.3-2-0.8c-0.5-0.5-0.7-1.2-0.7-2v-66.8H410
		c-0.7,0-1.4-0.3-1.9-0.8C407.5,371.3,407.2,370.7,407.2,369.8"/>
</g>
</svg>
