<?xml version="1.0" encoding="utf-8"?>
<!-- Generator: Adobe Illustrator 27.9.0, SVG Export Plug-In . SVG Version: 6.00 Build 0)  -->
<svg version="1.1" id="Слой_1" xmlns="http://www.w3.org/2000/svg" xmlns:xlink="http://www.w3.org/1999/xlink" x="0px" y="0px"
	 width="500px" height="300.8px" viewBox="0 0 500 300.8" style="enable-background:new 0 0 500 300.8;" xml:space="preserve">
<style type="text/css">
	.st0{fill:#E51F2B;}
	.st1{fill:#121037;}
	.st2{fill:#FFFFFF;}
</style>
<g>
	<path class="st0" d="M40.6,223.4l-14.2-3.5c-5-1.3-7.5-3.7-7.5-7c0-2.3,1.1-4.2,3.2-5.6c2.2-1.4,4.9-2.1,8.1-2.1
		c4.9,0,10.1,2.1,15.5,6.1c2.3,1.7,4.3,1.7,6-0.1l5.2-5.4c1.8-1.8,1.6-3.8-0.6-5.8c-2.5-2.5-6.1-4.6-10.6-6.3
		c-4.5-1.7-9.6-2.5-15.2-2.5c-8.4,0-15.2,2.1-20.6,6.4c-5.4,4.3-8.1,9.7-8.1,16.4c0,5.2,1.6,9.6,4.8,13.1c3.2,3.5,7.7,6,13.5,7.4
		l12.8,3.2c3.6,0.9,6.3,2,8,3.3c1.7,1.3,2.6,3.1,2.6,5.4c0,2.1-1.1,4-3.2,5.5c-2.1,1.6-5.1,2.3-8.9,2.3c-6.7,0-12.6-2.5-17.8-7.6
		c-1.8-1.8-3.6-2.1-5.4-0.9l-6.8,5.3c-1.1,1-1.5,2.1-1.4,3.2c0.1,1.2,0.7,2.2,1.6,3.2c2.8,3,6.7,5.6,11.7,7.7
		c5,2.1,10.8,3.1,17.4,3.1c9.6,0,17-2.3,22.2-7c5.3-4.7,7.9-10.2,7.9-16.6C60.9,234.1,54.2,226.9,40.6,223.4"/>
	<path class="st0" d="M119.8,199.9c-4.6-4.8-11-7.2-19.1-7.2H71.6c-0.7,0-1.3,0.2-1.7,0.7c-0.4,0.5-0.6,1-0.6,1.6v69.5
		c0,0.7,0.2,1.3,0.6,1.7c0.4,0.5,1,0.7,1.7,0.7h11.2c0.6,0,1.2-0.2,1.7-0.7c0.5-0.5,0.7-1,0.7-1.7v-22.3h15.5c8.1,0,14.4-2.4,19-7.1
		c4.6-4.7,7-10.6,7-17.7C126.7,210.5,124.4,204.7,119.8,199.9 M107,225.3c-2.1,2-4.8,3-8.2,3.1H85.1v-21.6h13.7c3.3,0,6,1,8.2,2.9
		c2.1,1.9,3.2,4.5,3.2,7.8S109.1,223.3,107,225.3"/>
	<path class="st0" d="M198,202.4c-7.6-7.4-16.9-11.1-27.9-11.1c-11,0-20.4,3.7-28,11.2c-7.6,7.5-11.4,16.6-11.4,27.4
		c0,10.8,3.8,20,11.4,27.4c7.6,7.5,16.9,11.2,28,11.2c11,0,20.3-3.7,27.9-11.1c7.6-7.4,11.4-16.6,11.4-27.5
		C209.4,219,205.6,209.8,198,202.4 M186.4,246.8c-4.3,4.6-9.8,6.9-16.3,6.9c-6.6,0-12-2.3-16.3-6.9c-4.3-4.6-6.5-10.3-6.5-17
		c0-6.7,2.2-12.4,6.5-17c4.3-4.6,9.8-6.9,16.3-6.9c6.6,0,12,2.3,16.3,6.9c4.3,4.6,6.5,10.2,6.5,17
		C192.9,236.6,190.7,242.2,186.4,246.8"/>
	<path class="st0" d="M280.8,263.8l-17-27.1c3.6-1.2,6.6-3.1,9-5.7c2.4-2.6,4-5.2,4.8-7.7c0.8-2.6,1.2-5.1,1.2-7.8
		c0-6.5-2.3-11.9-7-16.2c-4.7-4.3-10.9-6.5-18.7-6.5h-33.3c-0.7,0-1.3,0.3-1.7,0.8c-0.4,0.5-0.6,1-0.6,1.6v69.5
		c0,0.7,0.2,1.3,0.6,1.7c0.4,0.5,1,0.7,1.7,0.7h11.1c0.7,0,1.3-0.2,1.7-0.7c0.5-0.5,0.7-1.1,0.7-1.7v-25.3h14.2l15.3,25.3
		c1,1.6,2.3,2.4,4,2.4h12.3c0.9,0,1.6-0.3,1.9-1C281.4,265.2,281.3,264.5,280.8,263.8 M259,223.7c-2.1,1.9-4.8,2.8-8,2.8h-17.7
		v-19.7h17.9c3.2,0,5.8,0.9,7.9,2.6c2,1.7,3.1,4.1,3.1,7.1C262.2,219.4,261.1,221.8,259,223.7"/>
	<path class="st0" d="M345.1,193.4c-0.5-0.5-1-0.7-1.6-0.7h-58.8c-0.6,0-1.2,0.2-1.7,0.7c-0.5,0.5-0.7,1-0.7,1.8v9.8
		c0,0.7,0.2,1.3,0.7,1.8c0.5,0.5,1,0.7,1.7,0.7h21.2v57.2c0,0.7,0.2,1.3,0.6,1.7c0.4,0.5,1,0.7,1.7,0.7h11.6c0.7,0,1.3-0.2,1.8-0.7
		c0.5-0.5,0.7-1.1,0.7-1.7v-57.2h21.2c0.6,0,1.2-0.2,1.6-0.7c0.5-0.5,0.7-1.1,0.7-1.8v-9.8C345.8,194.5,345.5,193.9,345.1,193.4"/>
	<path class="st1" d="M166.9,85.6l-22.7-9.5c-6.6-2.9-9.2-4.8-8.8-7.1c0.4-2.2,2.1-4.2,8.4-4.2l46.8,0c1.2,0,2.2-0.8,2.5-2l3.6-17.2
		c0.3-1.6-0.9-3-2.5-3l-48.3,0c-22.9,0.1-32.2,12.4-35,25.3c-3.6,16.3,9.5,23.9,18.8,27.8l24.9,10.1c6.1,2.5,7.1,4.7,6.4,7.2
		c-0.7,2.7-2.9,4.5-10.6,4.5h-48c-1.2,0-2.2,0.8-2.5,2l-3.6,17.2c-0.3,1.6,0.9,3,2.5,3h51.6c23.7-0.2,31.9-12.5,34.9-25.9
		C189,97,178.5,90.5,166.9,85.6"/>
	<path class="st1" d="M384.6,42.7h-22.1c-0.7,0-1.4,0.3-1.9,0.9L325,83.8l-23.9-39.9c-0.5-0.8-1.3-1.2-2.2-1.2h-8.7h-12.9h-9.2
		c-0.7,0-1.4,0.3-1.9,0.9l-41.5,47l28.8,48.1c0.5,0.8,1.3,1.2,2.2,1.2h22.9c2,0,3.2-2.1,2.2-3.8l-27.3-45.5l28.6-32.4l28.4,47.5
		l-13.3,62.7c-0.3,1.6,0.9,3,2.5,3h0.2h18.6c1.2,0,2.2-0.8,2.5-2l13.6-63.8l52-58.7C387.9,45.3,386.8,42.7,384.6,42.7"/>
	<path class="st1" d="M241,0h-19.5c-1.2,0-2.2,0.8-2.5,2l-28.7,134.8c-0.3,1.6,0.9,3,2.5,3h19.5c1.2,0,2.2-0.8,2.5-2L243.4,3
		C243.7,1.5,242.6,0,241,0"/>
	<path class="st1" d="M359.6,230.6c0-38.8,31.4-70.2,70.2-70.2c38.8,0,70.2,31.4,70.2,70.2c0,38.8-31.4,70.2-70.2,70.2
		C391,300.8,359.6,269.4,359.6,230.6"/>
	<path class="st2" d="M426.5,220.8h2c2.3,0,4.2-0.6,5.8-1.9c1.6-1.2,2.4-2.9,2.4-5.1c0-2-0.7-3.7-2.2-4.9c-1.5-1.2-3.3-1.9-5.4-1.9
		c-3.9,0-7,2.2-9.1,6.6c-0.9,1.8-2.2,2.3-3.9,1.6l-9.7-4c-2.1-0.8-2.7-2.3-1.9-4.3c1.6-4.2,4.6-7.8,9.1-10.9
		c4.4-3.1,10.1-4.7,17-4.7c7,0,12.7,1.8,17.2,5.3c4.5,3.6,6.8,8.3,6.8,14.2c0,3.2-0.9,6.2-2.8,8.9c-1.8,2.7-4.2,4.6-7.1,5.7
		c9.2,2.7,13.8,8.9,13.8,18.5c0,7.5-2.7,13.4-8.2,17.9c-5.5,4.4-12.5,6.7-21.2,6.7c-8.7,0-15.9-2.3-21.5-7
		c-5.6-4.6-8.4-10.7-8.4-18.1v-1.8c0-0.7,0.3-1.3,0.8-1.8c0.5-0.5,1.2-0.7,2-0.7h13.3c0.8,0,1.4,0.2,2,0.7c0.5,0.5,0.8,1.1,0.8,1.8
		v0.5c0,3,1,5.5,2.9,7.5c1.9,2,4.6,3,8,3c3.2,0,5.7-0.8,7.5-2.5c1.8-1.7,2.7-3.8,2.7-6.2c0-2.5-0.9-4.5-2.7-6.1
		c-1.8-1.6-4.4-2.4-7.7-2.4h-2.5c-0.7,0-1.3-0.3-1.8-0.8c-0.5-0.5-0.7-1.1-0.7-1.9v-9.2c0-0.8,0.3-1.4,0.7-2
		C425.1,221.1,425.7,220.8,426.5,220.8"/>
</g>
</svg>
