<?xml version="1.0" encoding="UTF-8" standalone="no"?>
<!-- Generator: Adobe Illustrator 24.2.0, SVG Export Plug-In . SVG Version: 6.00 Build 0)  -->

<svg
   version="1.1"
   xml:space="preserve"
   viewBox="0 0 1584.5583 720.6181"
   id="svg85772"
   xmlns="http://www.w3.org/2000/svg"
   xmlns:svg="http://www.w3.org/2000/svg"><defs
     id="defs50430" />=<path
     id="path829"
     d="m 426.5309,410.36009 c -3.26615,0 -4.4093,-1.61416 -5.55245,-3.38973 l -61.61109,-101.6564 88.50335,-98.92089 c 1.46977,-1.61417 2.93955,-2.90548 5.87908,-2.90548 h 65.04986 c 3.42944,0 4.4093,1.29131 6.8589,5.16528 l 49.97209,82.25995 75.78473,-84.51985 c 1.30646,-1.61417 2.77623,-2.90548 5.71576,-2.90548 l 47.22274,-3e-4 c 5.55246,0 6.69561,6.13377 3.59277,9.36207 L 595.98968,337.71357 566.15881,472.66636 c -0.65323,3.06689 -2.61292,4.86487 -6.20568,4.86487 h -38.38381 c -6.69561,0 -7.34884,-4.2192 -5.71577,-10.51439 l 28.6587,-129.2936 -61.277,-101.36876 -61.80343,68.86275 57.81086,95.13512 c 2.65852,2.93076 3.02949,9.75733 -4.04614,9.84633 z"
     style="fill:#00013a" /><path
     id="path827"
     d="m 291.14898,410.26052 c -7.02221,0 -7.67545,-4.42005 -5.87906,-10.39242 l 62.38346,-282.31523 c 0.65323,-2.74406 1.79638,-5.00387 5.55246,-5.00387 h 42.29664 c 4.89922,0 5.71577,4.51963 4.5726,8.39359 l -40.70772,184.37137 -21.83905,98.91235 c -0.97984,3.87396 -1.95969,6.19563 -5.71576,6.19563 z"
     style="fill:#00013a" /><path
     id="path825"
     d="m 87.594628,410.25986 c -4.082688,0 -6.042384,-1.93698 -6.042384,-5.48811 0,-2.42124 1.633078,-7.90936 1.633078,-7.90936 l 6.368988,-28.89333 c 0.816545,-3.55113 2.123005,-5.00386 6.042384,-5.00386 H 200.11349 c 12.90129,0 21.75676,-3.28949 21.75676,-12.65158 0,-5.81094 -8.03893,-9.68491 -20.28699,-14.68879 L 146.0587,313.18812 c -18.94367,-9.52349 -34.13126,-22.75954 -34.13126,-44.71201 0,-14.68115 7.156,-35.45036 23.79957,-48.9579 11.79137,-9.56961 29.64475,-16.09244 51.78924,-16.09244 h 105.35589 c 4.0827,0 5.87908,2.42123 5.87908,5.00387 0,2.0984 -2.123,10.16916 -2.123,10.16916 l -5.87907,26.63352 c -0.65323,3.06688 -1.63307,5.64952 -7.34884,5.64952 h -99.29096 c -10.45168,0 -17.63721,3.38973 -17.63721,9.52351 0,5.16528 8.32868,9.84632 16.82068,13.23604 l 54.05479,22.43672 c 19.59689,8.87783 38.27764,19.69265 38.27764,45.68051 0,15.49585 -7.41253,36.21888 -19.00737,48.16361 -13.22791,13.7203 -32.8286,20.49904 -62.06063,20.49904 z"
     style="fill:#00013a" /><path
     id="path837"
     d="m 68.042935,655.77214 c 16.707844,0 26.05925,-8.25448 26.05925,-16.75537 0,-21.47777 -37.445734,-18.33467 -65.010326,-30.54042 -14.342646,-6.74017 -25.3616058,-18.90053 -25.3616058,-39.16812 0,-29.07548 26.5330058,-48.44144 62.3177158,-48.44144 23.191485,0 43.764581,7.02247 56.981231,19.9586 2.74307,2.71043 4.11462,6.77607 0.74811,10.59531 l -12.59323,12.93613 c -3.61587,2.83363 -8.30296,2.95682 -11.918827,-0.12321 -9.85015,-8.13128 -23.741193,-13.60539 -34.214768,-13.60539 -13.091967,0 -24.313653,6.33653 -24.313653,16.31582 0,17.72358 31.129502,15.68219 59.634128,26.55621 16.36862,6.55548 30.96032,17.75387 31.38622,41.69727 0,5.68873 -0.93939,11.62742 -3.32312,17.24108 -4.76157,11.21344 -14.68744,21.53128 -28.893187,27.61372 -8.770198,3.75511 -19.732617,5.6577 -32.869477,5.6577 -27.68016,0 -48.627308,-8.87049 -62.8414429,-22.91542 C -2.4043171,656.26494 0.089391,651.2137 3.4558969,648.25686 L 17.186319,637.81825 c 2.498436,-2.10414 6.647604,-3.48313 11.077245,0.33125 3.068083,3.18314 7.059224,6.30284 10.713484,8.74902 8.226328,5.50675 17.928754,8.87362 29.065887,8.87362 z"
     style="fill:#fc3b3b" /><path
     id="path843"
     d="m 476.0415,523.81529 c -3.2437,0 -5.61411,2.21775 -5.61411,5.54437 V 677.0863 c 0,2.957 1.62185,5.54437 5.61411,5.54437 h 23.95352 c 3.36845,0 4.9903,-2.71058 4.9903,-4.92832 v -54.33482 h 30.69045 l 32.93607,53.84198 c 1.99612,3.44983 4.99031,5.42116 8.85781,5.42116 h 26.19916 c 4.61603,0 5.98836,-3.69624 3.61796,-7.5157 l -36.17978,-57.29181 c 16.46805,-5.42117 32.3123,-20.82219 32.3123,-45.46383 0,-28.70752 -23.20497,-48.54404 -56.14105,-48.54404 z m 29.06859,30.30922 h 38.92445 c 12.72531,0 23.45448,7.14608 23.45448,20.32936 0,14.78498 -13.22434,21.56143 -23.95352,21.56143 h -38.42541 z"
     style="fill:#fc3b3b" /><path
     id="path849"
     d="m 667.51987,682.50747 c -3.46923,0 -5.57554,-1.84813 -5.57554,-5.54437 V 555.31068 h -45.97181 c -2.72583,0 -4.95605,-2.09454 -4.95605,-4.92833 v -20.9454 c 0,-3.0802 2.10632,-5.54437 5.57555,-5.54437 h 126.26446 c 3.46922,0 5.57554,2.46417 5.57554,5.54437 v 20.45257 c 0,3.44983 -1.85851,5.54436 -5.57554,5.54436 H 697.50389 V 677.0863 c 0,2.957 -1.85851,5.54437 -5.57554,5.54437 z"
     style="fill:#fc3b3b" /><path
     id="path839"
     d="m 155.31993,523.81911 c -3.23863,0 -5.60533,2.22041 -5.60533,5.55102 v 147.70359 c 0,2.96055 1.61932,5.55102 5.60533,5.55102 h 23.71578 c 3.36318,0 4.98251,-2.71383 4.98251,-4.93423 v -47.7852 h 35.52655 c 30.64257,0 54.484,-21.13405 54.484,-52.91974 0,-30.22223 -22.04771,-53.0431 -54.93242,-53.0431 h -63.77642 z m 28.82286,30.34559 h 30.64263 c 12.70545,0 23.4179,8.38821 23.4179,22.82087 0,14.80273 -11.95807,23.06758 -23.91615,23.06758 h -30.14438 z"
     style="fill:#fc3b3b" /><path
     id="path851"
     d="m 368.40325,520.61186 c -48.44083,0 -85.59604,36.87543 -85.59604,82.64855 0,46.50522 37.07972,82.52519 85.3957,82.52519 49.19449,0 85.27084,-38.11702 85.27084,-82.15513 0,-48.81474 -39.75086,-83.01861 -85.0705,-83.01861 z m -0.32519,31.62537 c 27.07344,0 49.26519,20.67759 49.26519,51.39324 0,27.01498 -18.97807,50.45263 -49.39004,50.45263 -27.84099,0 -49.31476,-21.22527 -49.31476,-50.82269 0.12485,-28.74196 21.47377,-51.02318 49.43961,-51.02318 z"
     style="fill:#fc3b3b" /><path
     id="path52540"
     style="fill:#37003c"
     d="m 1277.9766,0 c 0,0 -19.753,58.395404 -25.5801,76.144531 -14.6563,-9.584526 -57.4483,-40.1364 -75.8125,-52.738281 3.708,24.316302 10.3179,64.253368 11.7305,72.417968 -3.7081,-2.129908 -24.0679,-20.768233 -55.6758,-35.5 18.2242,22.321777 29.9954,52.637782 38.8242,77.664062 45.849,-26.04162 99.4388,-41.255858 156.1211,-41.255858 29.3123,0 58.0957,4.238718 85.2891,11.693358 3.0018,-26.623692 8.8294,-59.282326 20.6601,-82.888671 -27.8996,21.476442 -44.4027,44.758043 -46.5215,47.775391 -0.7065,-5.857214 -2.9455,-45.879235 -5.0644,-73.21289062 C 1370.9994,11.814032 1327.6625,60.12057 1320.2461,68.285156 1314.2424,58.700629 1277.9766,0 1277.9766,0 Z m 50.3867,115.58007 c -51.1173,0 -99.1223,12.51574 -141.3652,33.99219 16.6864,1.06013 33.6709,12.55386 42.7246,35.17383 -17.0391,-13.13435 -43.3995,-19.61143 -59.7285,-2.57227 -15.6194,16.86169 -14.498,50.63023 1.1211,77.25391 -17.4399,-8.27455 -29.7659,-27.71725 -30.7344,-50.86328 -0.5578,-13.3286 1.2719,-21.79523 6.7636,-34.21289 -40.3115,28.90835 -74.1977,69.89605 -95.9882,114.54883 11.2338,1.62322 21.7447,3.35724 32.9785,4.98046 -37.2894,42.58156 -63.0879,119.35527 -63.0879,154.85352 l 52.6973,-16.5918 c -9.762,31.77095 -11.5088,139.93053 19.2109,191.41602 0,0 41.4991,-28.7945 88.002,-101.21094 20.0565,65.13929 10.7814,121.67005 0.064,173.0918 84.3082,47.21269 182.1297,20.89259 239.8145,-20.46289 l 10.2343,40.32617 c 68.6497,-45.49033 103.6531,-108.08186 111.1075,-183.51562 l 25.1621,27.97265 c 37.9862,-115.10426 8.9532,-205.39034 -46.4239,-284.72851 l -2.4082,18.45898 -23.998,-26.125 c 0,0 4.3245,-1.96798 8.7617,-7.11523 0.8875,-2.12991 -1.6009,-15.50924 -11.1855,-23.67383 -9.7619,2.30738 -16.8566,8.34494 -20.584,13.49218 -13.3119,-11.89191 -28.4961,-16.89257 -28.4961,-16.89257 2.8398,1.59742 19.0235,24.4592 20.4433,30.3164 14.7319,11.89193 32.9665,26.02821 45.5684,42.35743 -10.2945,-11.71443 -59.1057,-14.73275 -82.002,-2.13086 0,0 -21.5342,-26.0878 -42.3007,-44.54688 -4.4373,-15.44174 9.9492,-29.29297 9.9492,-29.29297 0,0 -14.5044,-0.25717 -27.8164,13.05469 -20.5889,-14.73179 -46.0508,-22.54102 -46.0508,-22.54102 -28.5607,4.5016 -48.4531,24.72071 -48.4531,24.72071 7.2772,4.43726 15.3734,9.33226 22.8281,12.34961 16.3291,6.74468 31.0598,4.53711 40.6445,4.53711 8.1645,0 18.6035,2.02148 18.6035,2.02148 0,0 19.5734,14.58745 47.6172,47.06836 -42.2431,-17.03916 -87.3943,2.23252 -118.455,-13.38672 -36.8145,-18.04623 -34.3809,-47.79492 -34.3809,-47.79492 0,0 -25.1035,-3.31739 -25.1035,-4.02735 0,1e-5 18.4449,-23.76214 46.4883,-32.63671 l -14.1075,-12.14649 c 16.3293,-14.73179 45.9973,-31.97016 92.5,-38.71484 0,0 20.7006,7.28277 62.9434,38.34375 7.4548,-9.58453 9.2168,-30.69141 9.2168,-30.69141 20.7664,7.98711 65.4774,39.69129 83.2266,59.57031 -8.8745,-23.07386 -16.12,-36.67295 -18.25,-60.27929 -11.1819,-11.00445 -37.3308,-33.17058 -91.9981,-46.48242 8.8746,18.63659 7.957,33.9746 7.957,33.9746 -10.2944,-13.31186 -31.7546,-34.07443 -46.4863,-39.93164 -8.4494,-0.67311 -17.5347,-1.20452 -27.2246,-1.30664 z m 97.5176,212.78321 c 19.2104,14.94205 37.539,20.8125 37.539,20.8125 v 40.73437 c -14.8043,11.74018 -57.8598,50.36125 -90.1113,46.45508 -17.6755,-33.48492 -33.4407,-63.00319 -33.2578,-62.82031 0,0 46.8808,-39.31155 85.8301,-45.18164 z m 89.2148,1.64648 c 14.7012,36.25182 16.3239,74.44345 1.7578,101.59961 -8.073,-18.45909 -18.943,-28.57171 -30.0097,-40.89453 v -40.54688 c 0,0 12.8083,-7.55633 28.2519,-20.1582 z m -28.9004,101.30274 c 13.3119,15.44173 16.3282,32.48046 16.3282,32.48046 -6.5671,34.07832 -25.5264,55.55391 -39.0157,63.54102 1.42,-24.31632 -5.0468,-45.48242 -5.0468,-45.48242 -10.2947,11.18195 -33.8162,22.19945 -47.8379,25.21679 -6.7446,-13.31186 -20.6192,-38.95312 -20.6192,-38.95312 24.4938,-0.70998 66.1406,-36.19336 66.1406,-36.19336 z" /><path
     id="rect57959"
     d="m 879.405,114.14308 h 20.20274 V 684.7223 H 879.405 Z"
     style="fill:#00013a" /></svg>
